<svg width="28" height="29" viewBox="0 0 28 29" fill="none" xmlns="http://www.w3.org/2000/svg">
<path id="Exclude" fill-rule="evenodd" clip-rule="evenodd" d="M0.529798 4.8766C0 6.15565 0 7.77712 0 11.0201V17.9801C0 21.223 0 22.8445 0.529798 24.1236C1.2362 25.829 2.59113 27.1839 4.29652 27.8903C5.57557 28.4201 7.19704 28.4201 10.44 28.4201H17.4C20.643 28.4201 22.2644 28.4201 23.5435 27.8903C25.2489 27.1839 26.6038 25.829 27.3102 24.1236C27.84 22.8445 27.84 21.223 27.84 17.9801V11.0201C27.84 7.77712 27.84 6.15565 27.3102 4.8766C26.6038 3.17121 25.2489 1.81627 23.5435 1.10988C22.2644 0.580078 20.643 0.580078 17.4 0.580078H10.44C7.19705 0.580078 5.57557 0.580078 4.29652 1.10988C2.59113 1.81627 1.2362 3.17121 0.529798 4.8766ZM13.4999 8.4707L13.8223 8.63551C14.6365 9.05176 15.3747 9.59535 16.0105 10.2401C15.0768 10.7262 14.2302 11.3565 13.5001 12.1015C12.7699 11.3565 11.9232 10.7261 10.9894 10.24C11.6252 9.59527 12.3633 9.05174 13.1775 8.63551L13.4999 8.4707ZM7.9613 10.6819C9.76443 11.0131 11.3674 11.9124 12.5787 13.1869C11.3765 14.8277 10.6667 16.8518 10.6667 19.0417C10.6667 20.1239 10.84 21.1656 11.1605 22.1406C8.79713 21.2078 7.125 18.9034 7.125 16.2086V10.5283L7.9613 10.6819ZM19.0387 10.6819L19.875 10.5283V16.2086C19.875 19.7294 17.0208 22.5836 13.5 22.5836C13.3345 22.5836 13.169 22.5777 13.0036 22.5718C12.9464 22.5698 12.8892 22.5678 12.832 22.566L12.6618 22.1299C12.2881 21.1718 12.0833 20.1299 12.0833 19.0419C12.0833 14.8745 15.0817 11.4087 19.0387 10.6819Z" fill="#1E73BE"/>
</svg>
